<svg xmlns="http://www.w3.org/2000/svg" viewBox="0 0 1000 642" role="img" aria-label="Fast Mart">
<title>Fast Mart</title>
<defs>
<linearGradient id="fmGreen" x1="0" y1="0" x2="0" y2="1"><stop offset="0" stop-color="#6CBE40"/><stop offset="0.45" stop-color="#39A33C"/><stop offset="1" stop-color="#176A2B"/></linearGradient>
<linearGradient id="fmGold" x1="0" y1="0" x2="0" y2="1"><stop offset="0" stop-color="#F6C637"/><stop offset="0.5" stop-color="#E7A828"/><stop offset="1" stop-color="#C9851A"/></linearGradient>
</defs>
<g fill="url(#fmGreen)" fill-rule="nonzero"><path d="M0 0 C1.479 0.001 2.958 0 4.437 -0.001 C8.429 -0.002 12.42 0.015 16.411 0.036 C20.591 0.055 24.771 0.057 28.951 0.06 C36.855 0.07 44.76 0.094 52.664 0.125 C61.668 0.158 70.672 0.175 79.675 0.19 C98.187 0.221 116.698 0.274 135.209 0.341 C137.005 3.933 134.809 7.658 133.642 11.317 C131.793 16.681 129.533 21.873 127.287 27.08 C124.683 33.13 122.311 39.234 120.112 45.441 C119.087 48.279 118.371 50.178 116.209 52.341 C106.288 54.188 95.607 53.558 85.537 53.657 C83.76 53.678 81.984 53.699 80.207 53.72 C75.572 53.775 70.936 53.824 66.3 53.873 C61.553 53.923 56.807 53.979 52.06 54.034 C42.776 54.141 33.493 54.242 24.209 54.341 C22.229 58.631 20.249 62.921 18.209 67.341 C37.019 67.341 55.829 67.341 75.209 67.341 C75.209 75.221 75.209 75.221 73.599 79.555 C73.256 80.489 72.914 81.423 72.56 82.385 C72.197 83.34 71.833 84.295 71.459 85.278 C71.111 86.229 70.763 87.179 70.404 88.159 C68.545 93.155 66.503 97.937 64.048 102.667 C63.053 104.651 62.322 106.666 61.646 108.778 C61.172 109.954 60.697 111.129 60.209 112.341 C57.005 113.408 54.727 113.461 51.36 113.454 C50.76 113.454 50.76 113.454 47.721 113.454 C47.072 113.451 47.072 113.451 43.791 113.438 C42.45 113.436 41.109 113.435 39.768 113.434 C36.242 113.43 32.715 113.42 29.189 113.409 C25.589 113.399 21.99 113.394 18.39 113.389 C11.33 113.379 4.269 113.362 -2.791 113.341 C-2.988 113.938 -3.184 114.536 -3.387 115.152 C-5.999 123.051 -5.999 123.051 -7.518 126.821 C-7.67 127.201 -7.67 127.201 -8.442 129.125 C-8.603 129.521 -8.603 129.521 -9.416 131.528 C-9.76 132.382 -10.103 133.235 -10.457 134.115 C-12.701 139.682 -14.978 145.234 -17.262 150.784 C-17.643 151.71 -18.024 152.636 -18.416 153.591 C-18.797 154.517 -19.178 155.443 -19.571 156.397 C-22.034 162.414 -24.375 168.463 -26.619 174.565 C-28.709 180.214 -31.005 185.768 -33.323 191.327 C-35.293 196.074 -37.099 200.857 -38.823 205.7 C-43.847 219.397 -43.847 219.397 -46.791 222.341 C-49.261 222.528 -51.617 222.593 -54.087 222.568 C-54.838 222.568 -55.589 222.568 -56.363 222.569 C-58.852 222.567 -61.341 222.552 -63.83 222.536 C-65.554 222.532 -67.277 222.529 -69.001 222.527 C-73.542 222.52 -78.082 222.5 -82.623 222.478 C-87.254 222.457 -91.886 222.448 -96.518 222.438 C-105.609 222.417 -114.7 222.383 -123.791 222.341 C-124.121 221.681 -124.451 221.021 -124.791 220.341 C-123.952 218.11 -123.043 215.998 -122.041 213.841 C-121.387 212.39 -120.735 210.938 -120.084 209.485 C-119.902 209.079 -119.902 209.079 -118.98 207.027 C-116.706 201.889 -114.536 196.706 -112.354 191.528 C-112.119 190.972 -112.119 190.972 -110.931 188.16 C-108.74 182.972 -106.555 177.781 -104.377 172.587 C-104.012 171.716 -103.646 170.845 -103.27 169.947 C-102.596 168.341 -101.923 166.734 -101.252 165.126 C-99.862 161.811 -98.466 158.524 -96.791 155.341 C-96.131 155.671 -95.471 156.001 -94.791 156.341 C-94.461 155.681 -94.131 155.021 -93.791 154.341 C-94.451 154.341 -95.111 154.341 -95.791 154.341 C-93.437 146.966 -90.642 139.824 -87.729 132.653 C-86.84 130.462 -85.954 128.271 -85.069 126.079 C-84.679 125.12 -84.29 124.162 -83.889 123.174 C-82.759 120.257 -81.757 117.315 -80.791 114.341 C-81.362 114.503 -81.933 114.666 -82.522 114.833 C-84.802 115.343 -86.769 115.461 -89.101 115.454 C-89.941 115.454 -90.782 115.454 -91.648 115.454 C-92.097 115.451 -92.097 115.451 -94.369 115.438 C-95.296 115.437 -96.223 115.435 -97.177 115.434 C-100.132 115.428 -103.087 115.416 -106.041 115.403 C-108.046 115.398 -110.052 115.393 -112.057 115.389 C-116.968 115.378 -121.88 115.361 -126.791 115.341 C-125.801 112.371 -124.811 109.401 -123.791 106.341 C-123.131 106.671 -122.471 107.001 -121.791 107.341 C-121.791 108.661 -121.791 109.981 -121.791 111.341 C-113.791 95.912 -113.791 95.912 -113.791 90.341 C-114.451 90.341 -115.111 90.341 -115.791 90.341 C-116.121 93.311 -116.451 96.281 -116.791 99.341 C-117.781 98.681 -118.771 98.021 -119.791 97.341 C-119.342 95.859 -118.882 94.38 -118.416 92.903 C-118.161 92.079 -117.906 91.256 -117.643 90.407 C-116.791 88.341 -116.791 88.341 -114.791 87.341 C-114.131 87.671 -113.471 88.001 -112.791 88.341 C-112.791 87.681 -112.791 87.021 -112.791 86.341 C-113.451 86.341 -114.111 86.341 -114.791 86.341 C-113.239 81.288 -111.654 76.821 -108.791 72.341 C-108.482 71.454 -108.173 70.567 -107.854 69.653 C-106.542 66.798 -105.659 66.48 -102.791 65.341 C-100.716 65.062 -100.716 65.062 -98.482 65.022 C-98.061 65.012 -98.061 65.012 -95.935 64.962 C-95.036 64.95 -94.138 64.938 -93.213 64.927 C-92.75 64.917 -92.75 64.917 -90.405 64.868 C-87.451 64.808 -84.496 64.762 -81.541 64.716 C-79.536 64.677 -77.531 64.638 -75.526 64.598 C-70.614 64.502 -65.703 64.418 -60.791 64.341 C-60.391 63.19 -59.992 62.038 -59.58 60.853 C-59.044 59.319 -58.507 57.785 -57.971 56.251 C-57.84 55.873 -57.84 55.873 -57.177 53.96 C-54.807 47.201 -51.94 40.774 -48.791 34.341 C-48.154 32.982 -47.517 31.622 -46.881 30.262 C-40.878 17.603 -33.728 7.032 -20.039 1.765 C-13.479 -0.359 -6.824 -0.055 0 0 Z M-7.791 1.341 C-7.791 1.671 -7.791 2.001 -7.791 2.341 C30.819 2.341 69.429 2.341 109.209 2.341 C109.209 2.011 109.209 1.681 109.209 1.341 C70.599 1.341 31.989 1.341 -7.791 1.341 Z M-36.791 15.341 C-36.461 16.001 -36.131 16.661 -35.791 17.341 C-35.461 16.681 -35.131 16.021 -34.791 15.341 C-35.451 15.341 -36.111 15.341 -36.791 15.341 Z M-38.791 19.341 C-39.121 20.001 -39.451 20.661 -39.791 21.341 C-39.131 21.341 -38.471 21.341 -37.791 21.341 C-38.121 20.681 -38.451 20.021 -38.791 19.341 Z M-46.791 33.341 C-47.121 34.331 -47.451 35.321 -47.791 36.341 C-47.461 36.506 -47.461 36.506 -45.791 37.341 C-46.121 36.021 -46.451 34.701 -46.791 33.341 Z M-51.791 45.341 C-50.791 48.341 -50.791 48.341 -50.791 48.341 Z M-54.791 53.341 C-53.791 55.341 -53.791 55.341 -53.791 55.341 Z M-56.791 58.341 C-55.791 60.341 -55.791 60.341 -55.791 60.341 Z M-57.791 61.341 C-58.121 63.321 -58.451 65.301 -58.791 67.341 C-58.131 66.681 -57.471 66.021 -56.791 65.341 C-57.166 63.216 -57.166 63.216 -57.791 61.341 Z M-104.791 67.341 C-105.08 68.062 -105.369 68.784 -105.666 69.528 C-106.708 72.132 -107.75 74.736 -108.791 77.341 C-108.131 78.001 -107.471 78.661 -106.791 79.341 C-106.118 77.906 -105.453 76.468 -104.791 75.028 C-104.42 74.228 -104.049 73.427 -103.666 72.602 C-102.791 70.341 -102.791 70.341 -102.791 67.341 C-103.451 67.341 -104.111 67.341 -104.791 67.341 Z M-100.791 67.341 C-101.121 68.001 -101.451 68.661 -101.791 69.341 C-100.471 69.011 -99.151 68.681 -97.791 68.341 C-98.781 68.011 -99.771 67.681 -100.791 67.341 Z M-97.791 67.341 C-97.791 67.671 -97.791 68.001 -97.791 68.341 C-85.911 68.341 -74.031 68.341 -61.791 68.341 C-61.791 68.011 -61.791 67.681 -61.791 67.341 C-65.27 67.17 -68.749 67.005 -72.229 66.841 C-73.203 66.793 -74.177 66.745 -75.18 66.696 C-92.205 65.899 -92.205 65.899 -97.791 67.341 Z M21.209 68.341 C21.209 68.671 21.209 69.001 21.209 69.341 C35.069 69.341 48.929 69.341 63.209 69.341 C63.209 69.011 63.209 68.681 63.209 68.341 C49.349 68.341 35.489 68.341 21.209 68.341 Z M69.209 68.341 C73.209 69.341 73.209 69.341 73.209 69.341 Z M-108.791 79.341 C-109.121 79.506 -109.121 79.506 -110.791 80.341 C-110.791 81.661 -110.791 82.981 -110.791 84.341 C-111.121 84.506 -111.121 84.506 -112.791 85.341 C-111.801 85.671 -110.811 86.001 -109.791 86.341 C-107.791 83.341 -107.791 83.341 -108.166 81.153 C-108.373 80.555 -108.579 79.957 -108.791 79.341 Z M-78.791 116.341 C-77.791 118.341 -77.791 118.341 -77.791 118.341 Z M-79.791 118.341 C-80.781 121.311 -81.771 124.281 -82.791 127.341 C-82.131 127.341 -81.471 127.341 -80.791 127.341 C-80.131 124.371 -79.471 121.401 -78.791 118.341 C-79.121 118.341 -79.451 118.341 -79.791 118.341 Z M-83.791 127.341 C-82.791 131.341 -82.791 131.341 -82.791 131.341 Z M-84.791 131.341 C-85.121 132.661 -85.451 133.981 -85.791 135.341 C-85.131 135.341 -84.471 135.341 -83.791 135.341 C-84.121 134.021 -84.451 132.701 -84.791 131.341 Z M-86.791 135.341 C-85.791 137.341 -85.791 137.341 -85.791 137.341 Z M-88.791 139.341 C-87.791 142.341 -87.791 142.341 -87.791 142.341 Z M-89.791 143.341 C-88.791 145.341 -88.791 145.341 -88.791 145.341 Z M-91.791 147.341 C-90.791 151.341 -90.791 151.341 -90.791 151.341 Z M-93.791 151.341 C-93.791 152.331 -93.791 153.321 -93.791 154.341 C-93.131 154.341 -92.471 154.341 -91.791 154.341 C-91.791 153.351 -91.791 152.361 -91.791 151.341 C-92.451 151.341 -93.111 151.341 -93.791 151.341 Z M-96.791 158.341 C-96.461 159.661 -96.131 160.981 -95.791 162.341 C-95.461 161.021 -95.131 159.701 -94.791 158.341 C-95.451 158.341 -96.111 158.341 -96.791 158.341 Z M-99.791 165.341 C-98.791 169.341 -98.791 169.341 -98.791 169.341 Z M-102.791 173.341 C-101.791 176.341 -101.791 176.341 -101.791 176.341 Z M-104.791 177.341 C-103.791 180.341 -103.791 180.341 -103.791 180.341 Z M-105.791 181.341 C-104.791 184.341 -104.791 184.341 -104.791 184.341 Z M-107.791 185.341 C-110.791 191.966 -110.791 191.966 -110.791 195.341 C-110.131 195.341 -109.471 195.341 -108.791 195.341 C-108.131 192.041 -107.471 188.741 -106.791 185.341 C-107.121 185.341 -107.451 185.341 -107.791 185.341 Z M-112.791 196.341 C-111.791 199.341 -111.791 199.341 -111.791 199.341 Z M-113.791 200.341 C-114.854 202.153 -114.854 202.153 -115.791 204.341 C-115.461 205.331 -115.131 206.321 -114.791 207.341 C-114.131 205.031 -113.471 202.721 -112.791 200.341 C-113.121 200.341 -113.451 200.341 -113.791 200.341 Z M-116.791 207.341 C-117.121 208.661 -117.451 209.981 -117.791 211.341 C-117.131 210.021 -116.471 208.701 -115.791 207.341 C-116.121 207.341 -116.451 207.341 -116.791 207.341 Z M-118.791 211.341 C-117.791 213.341 -117.791 213.341 -117.791 213.341 Z M-120.791 214.341 C-120.461 215.331 -120.131 216.321 -119.791 217.341 C-119.461 216.351 -119.131 215.361 -118.791 214.341 C-119.451 214.341 -120.111 214.341 -120.791 214.341 Z " transform="translate(363.791259765625,61.659423828125)"/><path d="M0 0 C38.94 0 77.88 0 118 0 C118 0.99 118 1.98 118 3 C103.058 2.916 88.115 2.821 73.173 2.712 C66.235 2.662 59.297 2.616 52.36 2.578 C45.668 2.542 38.977 2.495 32.286 2.442 C29.729 2.423 27.172 2.408 24.615 2.397 C21.042 2.38 17.47 2.351 13.897 2.319 C13.365 2.318 13.365 2.318 10.671 2.312 C10.185 2.307 10.185 2.307 7.727 2.278 C7.304 2.276 7.304 2.276 5.165 2.262 C3 2 3 2 0 0 Z " transform="translate(135,63)"/><path d="M0 0 C1.075 -0.01 2.149 -0.019 3.256 -0.029 C4.421 -0.028 5.585 -0.027 6.785 -0.026 C7.976 -0.03 9.167 -0.035 10.394 -0.039 C12.916 -0.045 15.438 -0.045 17.96 -0.041 C21.832 -0.038 25.703 -0.061 29.574 -0.087 C32.02 -0.089 34.465 -0.09 36.91 -0.089 C38.075 -0.098 39.239 -0.107 40.439 -0.117 C40.976 -0.113 40.976 -0.113 43.695 -0.098 C44.644 -0.098 45.593 -0.099 46.571 -0.1 C47.322 0.024 48.073 0.147 48.848 0.275 C50.848 3.275 50.848 3.275 50.572 5.141 C50.329 5.828 50.086 6.516 49.836 7.224 C49.704 7.607 49.704 7.607 49.037 9.546 C48.748 10.343 48.458 11.141 48.16 11.962 C47.89 12.74 47.62 13.518 47.342 14.32 C45.589 19.334 43.717 24.303 41.848 29.275 C41.683 29.77 41.683 29.77 40.848 32.275 C48.768 32.275 56.688 32.275 64.848 32.275 C65.845 36.264 65.925 36.906 64.625 40.478 C64.481 40.882 64.481 40.882 63.751 42.927 C63.432 43.784 63.114 44.641 62.785 45.525 C62.464 46.408 62.144 47.292 61.813 48.203 C61.153 50.017 60.487 51.83 59.817 53.64 C58.92 56.078 58.047 58.524 57.184 60.974 C56.677 62.387 56.169 63.8 55.66 65.212 C55.435 65.855 55.21 66.498 54.978 67.16 C53.497 71.184 51.86 74.215 48.848 77.275 C46.007 77.842 46.007 77.842 42.77 77.763 C42.189 77.755 42.189 77.755 39.254 77.714 C38.047 77.672 36.841 77.63 35.598 77.587 C34.376 77.565 33.154 77.542 31.895 77.519 C28.878 77.46 25.863 77.378 22.848 77.275 C22.669 77.896 22.49 78.517 22.306 79.157 C20.632 84.864 18.754 90.421 16.598 95.962 C16.273 96.806 15.948 97.649 15.613 98.519 C14.839 100.528 14.063 102.537 13.286 104.545 C11.873 108.209 10.468 111.876 9.065 115.544 C7.71 119.083 6.354 122.623 4.998 126.162 C4.316 127.942 3.634 129.722 2.953 131.502 C1.985 134.032 1.014 136.562 0.043 139.091 C-0.103 139.474 -0.103 139.474 -0.843 141.412 C-2.147 144.799 -3.527 148.024 -5.152 151.275 C10.358 151.275 25.868 151.275 41.848 151.275 C42.957 155.71 42.571 156.945 41.117 161.142 C40.726 162.275 40.335 163.408 39.932 164.575 C39.512 165.755 39.092 166.934 38.66 168.15 C38.26 169.321 37.86 170.493 37.447 171.7 C33.586 182.729 33.586 182.729 29.848 187.275 C26.701 188.023 26.701 188.023 22.943 188.019 C22.256 188.027 21.569 188.034 20.862 188.041 C18.593 188.058 16.327 188.03 14.059 188.001 C12.474 188 10.889 188.001 9.305 188.004 C5.981 188.004 2.657 187.983 -0.667 187.947 C-4.903 187.902 -9.138 187.901 -13.375 187.914 C-16.651 187.921 -19.927 187.907 -23.202 187.888 C-24.763 187.88 -26.323 187.878 -27.883 187.881 C-38.48 187.885 -47.86 187.406 -56.09 179.962 C-61.243 174.201 -62.823 168.557 -62.641 160.927 C-61.277 150.725 -57.385 140.883 -53.143 131.563 C-51.433 127.612 -50.092 123.539 -48.715 119.462 C-46.492 112.987 -44.126 106.649 -41.414 100.361 C-38.323 92.802 -35.734 85.02 -33.152 77.275 C-33.435 77.298 -33.435 77.298 -34.865 77.414 C-37.418 77.613 -39.972 77.788 -42.527 77.962 C-43.417 78.035 -44.306 78.108 -45.223 78.183 C-46.073 78.238 -46.924 78.292 -47.801 78.349 C-48.586 78.406 -49.372 78.464 -50.181 78.523 C-50.832 78.441 -51.482 78.359 -52.152 78.275 C-52.812 77.285 -53.472 76.295 -54.152 75.275 C-53.74 73.276 -53.74 73.276 -52.809 70.986 C-52.472 70.134 -52.135 69.283 -51.788 68.406 C-51.413 67.496 -51.038 66.587 -50.652 65.65 C-49.897 63.751 -49.143 61.851 -48.391 59.95 C-48.011 58.999 -47.632 58.047 -47.241 57.066 C-45.403 52.353 -43.765 47.573 -42.145 42.782 C-38.399 31.898 -38.399 31.898 -35.152 30.275 C-33.704 30.191 -32.252 30.167 -30.801 30.177 C-30.375 30.179 -30.375 30.179 -28.223 30.187 C-27.333 30.195 -26.444 30.204 -25.527 30.212 C-24.63 30.217 -23.733 30.221 -22.809 30.226 C-20.59 30.238 -18.371 30.254 -16.152 30.275 C-16.069 29.517 -15.985 28.759 -15.898 27.978 C-14.854 22.796 -13.037 17.978 -11.215 13.025 C-10.855 12.019 -10.494 11.014 -10.123 9.978 C-9.773 9.019 -9.423 8.06 -9.062 7.072 C-8.744 6.199 -8.426 5.325 -8.098 4.426 C-6.213 0.138 -4.385 0.021 0 0 Z M-4.152 1.275 C-3.152 3.275 -3.152 3.275 -3.152 3.275 Z M4.848 2.275 C8.848 3.275 8.848 3.275 8.848 3.275 Z M30.848 2.275 C30.848 2.605 30.848 2.935 30.848 3.275 C32.828 3.275 34.808 3.275 36.848 3.275 C36.848 2.945 36.848 2.615 36.848 2.275 C34.868 2.275 32.888 2.275 30.848 2.275 Z M41.848 33.275 C41.848 33.605 41.848 33.935 41.848 34.275 C49.108 34.275 56.368 34.275 63.848 34.275 C63.848 33.945 63.848 33.615 63.848 33.275 C56.588 33.275 49.328 33.275 41.848 33.275 Z M-4.152 153.275 C-4.152 153.605 -4.152 153.935 -4.152 154.275 C10.698 154.275 25.548 154.275 40.848 154.275 C40.848 153.945 40.848 153.615 40.848 153.275 C25.998 153.275 11.148 153.275 -4.152 153.275 Z " transform="translate(764.15234375,96.725341796875)"/><path d="M0 0 C11.153 -0.07 22.307 -0.123 33.46 -0.155 C38.64 -0.171 43.82 -0.192 49 -0.226 C54.005 -0.259 59.011 -0.277 64.017 -0.285 C65.919 -0.29 67.822 -0.301 69.725 -0.317 C85.445 -0.446 97.972 0.364 109.875 11.75 C114.991 19.574 115.679 26.948 114 36 C111.717 44.673 108.534 52.795 104.812 60.938 C103.826 63.14 102.842 65.343 101.859 67.547 C101.374 68.635 100.889 69.724 100.389 70.846 C95.432 82.106 90.961 93.579 86.412 105.008 C81.665 116.933 76.884 128.843 71.938 140.688 C71.711 141.237 71.711 141.237 70.565 144.017 C70.14 145.026 69.715 146.035 69.277 147.074 C68.909 147.957 68.54 148.839 68.16 149.749 C66.967 152.065 66.003 153.353 64 155 C62.097 155.383 62.097 155.383 59.91 155.394 C59.079 155.406 58.248 155.417 57.392 155.429 C56.483 155.426 55.575 155.423 54.638 155.42 C53.679 155.428 52.719 155.437 51.73 155.446 C48.548 155.469 45.366 155.47 42.184 155.469 C39.97 155.476 37.756 155.484 35.542 155.492 C30.894 155.505 26.246 155.507 21.598 155.501 C15.659 155.495 9.72 155.526 3.781 155.566 C-0.796 155.592 -5.373 155.595 -9.95 155.591 C-12.138 155.593 -14.327 155.602 -16.515 155.62 C-19.588 155.643 -22.66 155.633 -25.733 155.615 C-26.627 155.628 -27.521 155.642 -28.443 155.655 C-36.116 155.554 -42.753 153.076 -48.375 147.75 C-48.911 146.842 -49.447 145.935 -50 145 C-50.369 144.41 -50.737 143.819 -51.117 143.211 C-55.579 134.995 -55.249 124.845 -53 115.938 C-45.623 95.404 -30.263 81.04 -11.125 71.312 C-4.669 68.313 2.072 66.391 8.938 64.562 C9.909 64.303 10.88 64.044 11.88 63.777 C17.397 62.394 22.311 61.624 28 62 C28.33 62.33 28.66 62.66 29 63 C28.974 66.373 28.506 69.669 28 73 C27.896 73.736 27.791 74.472 27.684 75.23 C27.099 77.608 26.512 79.058 25 81 C22.113 82.727 19.156 84.07 16.086 85.441 C10.163 88.433 6.303 92.76 3 98.438 C1.824 102.627 1.147 106.685 2 111 C3.571 112.913 4.784 113.892 7 115 C9.411 115.202 11.831 115.313 14.25 115.375 C14.902 115.399 14.902 115.399 18.203 115.523 C22.684 114.906 25.032 113.266 28 110 C29.314 107.498 30.319 105.284 31.262 102.656 C31.538 101.933 31.814 101.21 32.099 100.465 C32.978 98.149 33.833 95.825 34.688 93.5 C35.24 92.033 35.794 90.567 36.35 89.102 C38.247 84.073 40.123 79.036 42 74 C45.63 64.43 49.26 54.86 53 45 C41.45 45.165 41.45 45.165 -17 46 C-18.205 42.384 -17.717 41.663 -16.27 38.246 C-15.878 37.308 -15.487 36.371 -15.084 35.404 C-14.664 34.425 -14.245 33.446 -13.812 32.438 C-13.006 30.52 -12.2 28.602 -11.395 26.684 C-10.994 25.739 -10.594 24.794 -10.181 23.82 C-8.697 20.277 -7.278 16.71 -5.86 13.141 C-4.894 10.737 -3.876 8.362 -2.812 6 C-2.489 5.278 -2.165 4.556 -1.832 3.812 C-1.244 2.531 -0.631 1.261 0 0 Z M25 1 C25 1.33 25 1.66 25 2 C41.5 2 58 2 75 2 C75 1.67 75 1.34 75 1 C58.5 1 42 1 25 1 Z M14 65 C14 65.33 14 65.66 14 66 C16.31 66 18.62 66 21 66 C21 65.67 21 65.34 21 65 C18.69 65 16.38 65 14 65 Z M2 68 C6 69 6 69 6 69 Z M-2 69 C-2 69.66 -2 70.32 -2 71 C-1.34 70.67 -0.68 70.34 0 70 C-0.66 69.67 -1.32 69.34 -2 69 Z M-19 77 C-19.33 77.66 -19.66 78.32 -20 79 C-19.01 78.67 -18.02 78.34 -17 78 C-17.66 77.67 -18.32 77.34 -19 77 Z M-23 80 C-23.33 80.66 -23.66 81.32 -24 82 C-23.34 82 -22.68 82 -22 82 C-22.33 81.34 -22.66 80.68 -23 80 Z M-28 83 C-27.67 83.66 -27.34 84.32 -27 85 C-26.67 84.34 -26.34 83.68 -26 83 C-26.66 83 -27.32 83 -28 83 Z M-30 85 C-29.67 85.66 -29.34 86.32 -29 87 C-28.67 86.34 -28.34 85.68 -28 85 C-28.66 85 -29.32 85 -30 85 Z M-32 87 C-32.33 87.495 -32.33 87.495 -34 90 C-32.68 89.34 -31.36 88.68 -30 88 C-30.66 87.67 -31.32 87.34 -32 87 Z M-35 90 C-34 92 -34 92 -34 92 Z M-45 103 C-44 105 -44 105 -44 105 Z " transform="translate(459,129)"/><path d="M0 0 C0.85 -0 1.699 -0.001 2.575 -0.001 C5.356 0 8.137 0.016 10.918 0.032 C12.857 0.035 14.796 0.038 16.735 0.04 C21.819 0.048 26.902 0.068 31.985 0.09 C37.18 0.11 42.375 0.119 47.57 0.129 C57.749 0.151 67.927 0.185 78.105 0.227 C79.161 3.88 78.878 5.751 77.629 9.375 C77.46 9.875 77.46 9.875 76.602 12.404 C76.232 13.459 75.862 14.515 75.48 15.602 C75.111 16.677 74.741 17.753 74.361 18.861 C73.622 21.004 72.879 23.146 72.13 25.286 C71.257 27.791 70.404 30.301 69.562 32.817 C69.144 34.045 68.725 35.274 68.293 36.54 C67.936 37.588 67.579 38.636 67.211 39.715 C66.064 42.32 65.338 43.504 63.105 45.227 C60.657 45.588 60.657 45.588 57.716 45.568 C56.615 45.567 55.514 45.567 54.38 45.567 C53.192 45.551 52.005 45.536 50.781 45.52 C49.565 45.516 48.348 45.512 47.095 45.507 C43.202 45.49 39.31 45.453 35.418 45.415 C32.782 45.4 30.146 45.386 27.51 45.374 C21.041 45.34 14.574 45.29 8.105 45.227 C7.85 46.044 7.595 46.862 7.332 47.704 C5.916 51.772 4.23 55.668 2.48 59.602 C2.156 60.338 1.831 61.074 1.496 61.833 C0.702 63.632 -0.096 65.43 -0.895 67.227 C0.27 67.186 1.435 67.146 2.635 67.104 C6.99 66.954 11.345 66.82 15.701 66.69 C17.58 66.632 19.458 66.57 21.337 66.503 C24.05 66.408 26.763 66.328 29.477 66.25 C30.305 66.218 31.134 66.186 31.987 66.153 C39.893 65.954 48.098 66.638 54.105 72.227 C58.033 78.798 59.422 85.708 58.105 93.227 C56.27 99.739 53.72 105.996 51.105 112.227 C50.807 112.941 50.508 113.654 50.2 114.39 C42.531 132.377 32.47 145.676 14.105 153.227 C8.917 154.97 4.207 155.511 -1.226 155.47 C-2.028 155.472 -2.831 155.474 -3.658 155.476 C-6.294 155.479 -8.93 155.469 -11.566 155.458 C-13.413 155.456 -15.26 155.456 -17.107 155.456 C-20.974 155.455 -24.84 155.446 -28.707 155.433 C-33.637 155.416 -38.567 155.412 -43.497 155.413 C-47.311 155.413 -51.126 155.407 -54.94 155.4 C-56.756 155.397 -58.573 155.395 -60.389 155.394 C-69.604 155.386 -78.731 155.354 -87.895 154.227 C-87.335 150.189 -86.459 146.773 -84.832 143.04 C-84.392 142.019 -83.953 140.998 -83.5 139.946 C-83.25 139.371 -83.001 138.796 -82.744 138.204 C-81.752 135.895 -80.785 133.578 -79.82 131.258 C-79.461 130.397 -79.102 129.537 -78.733 128.65 C-78.012 126.921 -77.292 125.192 -76.574 123.463 C-76.241 122.669 -75.909 121.876 -75.566 121.059 C-75.417 120.702 -75.417 120.702 -74.663 118.894 C-73.895 117.227 -73.895 117.227 -72.895 116.227 C-71.035 116.114 -69.171 116.07 -67.308 116.053 C-66.113 116.04 -64.918 116.026 -63.686 116.013 C-62.382 116.002 -61.078 115.992 -59.734 115.981 C-58.387 115.965 -57.04 115.949 -55.693 115.932 C-49.964 115.862 -44.235 115.802 -38.505 115.75 C-35.003 115.718 -31.5 115.677 -27.998 115.63 C-26.024 115.606 -24.05 115.593 -22.076 115.58 C-15.716 115.494 -9.935 115.32 -3.895 113.227 C-2.582 111.102 -2.582 111.102 -1.895 108.227 C-1.367 106.784 -0.825 105.347 -0.27 103.915 C0.184 102.698 0.638 101.481 1.105 100.227 C-8.124 99.024 -17.261 99.19 -26.551 99.354 C-37.54 99.456 -46.728 99.205 -54.895 91.227 C-59.673 85.479 -60.307 80.161 -60.234 72.875 C-59.71 67.248 -57.832 62.387 -55.695 57.187 C-54.518 54.305 -53.41 51.397 -52.293 48.491 C-51.401 46.18 -50.495 43.875 -49.586 41.571 C-48.534 38.894 -47.527 36.214 -46.547 33.508 C-42.201 21.546 -35.927 11.057 -24.309 4.844 C-16.3 1.518 -8.626 -0.079 0 0 Z M68.105 1.227 C68.105 1.557 68.105 1.887 68.105 2.227 C70.085 2.227 72.065 2.227 74.105 2.227 C74.105 1.897 74.105 1.567 74.105 1.227 C72.125 1.227 70.145 1.227 68.105 1.227 Z M-37.895 18.227 C-36.895 20.227 -36.895 20.227 -36.895 20.227 Z M-43.895 31.227 C-42.895 33.227 -42.895 33.227 -42.895 33.227 Z M-0.895 68.227 C-0.895 68.557 -0.895 68.887 -0.895 69.227 C13.955 69.227 28.805 69.227 44.105 69.227 C44.105 68.897 44.105 68.567 44.105 68.227 C29.255 68.227 14.405 68.227 -0.895 68.227 Z M-58.895 117.227 C-58.895 117.557 -58.895 117.887 -58.895 118.227 C-49.985 118.227 -41.075 118.227 -31.895 118.227 C-31.895 117.897 -31.895 117.567 -31.895 117.227 C-40.805 117.227 -49.715 117.227 -58.895 117.227 Z M-29.895 117.227 C-25.895 118.227 -25.895 118.227 -25.895 118.227 Z " transform="translate(631.89453125,128.77294921875)"/><path d="M0 0 C1.247 0.003 2.494 0.006 3.779 0.01 C5.073 0.018 6.366 0.027 7.699 0.035 C8.356 0.037 8.356 0.037 11.678 0.049 C14.914 0.061 18.15 0.077 21.387 0.098 C21.552 0.758 21.552 0.758 22.387 4.098 C21.397 3.768 20.407 3.438 19.387 3.098 C17.031 2.946 14.672 2.849 12.312 2.781 C11.629 2.76 10.945 2.74 10.24 2.718 C8.06 2.653 5.88 2.594 3.699 2.535 C2.219 2.492 0.74 2.448 -0.74 2.404 C-4.364 2.297 -7.989 2.196 -11.613 2.098 C-11.613 1.768 -11.613 1.438 -11.613 1.098 C-7.68 0.167 -4.037 -0.018 0 0 Z " transform="translate(204.61328125,215.90234375)"/><path d="M0 0 C1.685 -0.001 3.369 -0.002 5.054 -0.003 C8.562 -0.004 12.071 -0.002 15.579 0.002 C19.993 0.008 24.406 0.005 28.82 -0.001 C48.229 -0.022 67.585 0.138 86.973 1.133 C86.403 6.103 85.743 10.413 83.973 15.133 C84.905 14.758 85.837 14.383 86.797 13.996 C119.544 0.839 119.544 0.839 135.75 1.195 C137.973 1.133 137.973 1.133 138.973 0.133 C155.646 -1.257 171.759 -0.018 185.957 9.457 C189.052 10.495 190.762 9.298 193.66 7.945 C194.731 7.471 195.803 6.997 196.906 6.508 C197.412 6.281 197.412 6.281 199.973 5.133 C217.278 -2.167 243.836 -2.789 261.688 3.016 C263.875 3.94 265.912 4.955 267.973 6.133 C268.499 6.432 268.499 6.432 271.16 7.945 C276.425 12.04 281.216 17.024 282.457 23.762 C282.545 24.73 282.632 25.698 282.723 26.695 C282.821 27.645 282.919 28.595 283.02 29.574 C282.876 40.439 278.976 49.71 274.723 59.508 C274.155 60.841 273.589 62.174 273.023 63.508 C269.897 70.849 266.63 78.116 263.263 85.35 C261.76 88.591 260.318 91.849 258.91 95.133 C258.465 96.164 258.021 97.195 257.562 98.258 C256.191 101.525 254.951 104.836 253.703 108.152 C251.14 114.848 248.235 121.365 245.241 127.876 C239.869 139.569 234.705 151.328 229.736 163.198 C227.224 169.193 224.651 175.149 221.973 181.07 C216.973 192.143 212.502 203.443 207.969 214.713 C206.973 217.133 206.973 217.133 205.973 219.133 C216.038 219.298 216.038 219.298 266.973 220.133 C268.265 224.009 267.151 226.383 265.848 230.07 C265.617 230.741 265.386 231.412 265.148 232.104 C263.385 237.151 261.413 242.092 259.301 247.004 C258.3 249.362 257.334 251.723 256.395 254.105 C256.127 254.784 255.859 255.463 255.584 256.162 C255.062 257.489 254.544 258.817 254.028 260.146 C252.878 263.063 251.722 265.509 249.973 268.133 C247.079 269.097 245.262 269.258 242.255 269.26 C241.285 269.263 240.315 269.265 239.316 269.268 C238.253 269.266 237.19 269.264 236.095 269.262 C234.974 269.264 233.854 269.266 232.699 269.268 C228.983 269.272 225.267 269.269 221.551 269.266 C218.971 269.266 216.391 269.267 213.812 269.269 C208.398 269.27 202.984 269.268 197.57 269.263 C191.323 269.258 185.075 269.259 178.827 269.265 C172.809 269.27 166.791 269.27 160.773 269.267 C158.217 269.266 155.66 269.267 153.104 269.269 C149.525 269.272 145.947 269.268 142.368 269.262 C141.313 269.264 140.259 269.266 139.172 269.268 C125.477 269.229 125.477 269.229 122.23 266.863 C117.032 259.782 116.734 251.676 117.973 243.133 C119.615 236.899 122.394 231.055 125.035 225.195 C125.701 223.666 126.364 222.135 127.025 220.604 C128.657 216.839 130.318 213.088 131.989 209.341 C133.599 205.728 135.189 202.107 136.777 198.484 C137.055 197.855 137.332 197.226 137.618 196.578 C139.796 191.617 141.794 186.599 143.778 181.558 C145.307 177.707 146.954 173.942 148.723 170.195 C152.165 162.884 155.206 155.413 158.289 147.944 C160.939 141.547 163.72 135.256 166.68 128.996 C168.553 124.847 170.113 120.593 171.711 116.332 C172.909 113.295 174.243 110.386 175.66 107.445 C179.302 99.727 182.265 91.752 185.282 83.773 C191.924 66.229 191.924 66.229 194.973 60.133 C185.733 60.133 176.493 60.133 166.973 60.133 C165.983 63.433 164.993 66.733 163.973 70.133 C163.159 72.442 162.32 74.743 161.449 77.031 C160.985 78.253 160.521 79.475 160.043 80.734 C159.805 81.356 159.567 81.978 159.321 82.618 C158.602 84.497 157.888 86.377 157.176 88.258 C154.644 94.902 152.018 101.493 149.259 108.046 C147.83 111.476 146.444 114.923 145.07 118.375 C144.822 118.998 144.574 119.622 144.318 120.264 C143.303 122.815 142.289 125.366 141.278 127.918 C138.602 134.663 135.888 141.38 133.004 148.039 C129.62 155.874 126.511 163.808 123.41 171.758 C122.306 174.584 121.201 177.41 120.094 180.234 C119.83 180.908 119.566 181.582 119.294 182.276 C116.938 188.264 114.481 194.207 111.973 200.133 C106.642 200.279 101.312 200.421 95.981 200.56 C94.178 200.608 92.375 200.656 90.571 200.706 C80.736 200.975 70.905 201.18 61.066 201.195 C60.251 201.198 59.436 201.2 58.596 201.202 C52.683 201.195 46.842 200.887 40.973 200.133 C41.598 196.425 42.645 193.24 44.129 189.789 C44.577 188.736 45.026 187.683 45.488 186.598 C45.978 185.454 46.468 184.311 46.973 183.133 C48.027 180.623 49.079 178.113 50.129 175.602 C50.682 174.282 51.235 172.963 51.789 171.645 C52.066 170.984 52.344 170.323 52.629 169.642 C53.192 168.303 53.754 166.963 54.316 165.624 C54.874 164.293 55.433 162.963 55.991 161.632 C56.537 160.33 57.084 159.027 57.631 157.725 C59.741 152.695 61.829 147.655 63.906 142.61 C64.868 140.376 65.907 138.224 67.035 136.07 C69.003 132.245 70.413 128.297 71.848 124.246 C74.828 115.998 78.102 107.875 81.848 99.945 C87.932 86.994 92.841 73.476 97.973 60.133 C88.733 60.133 79.493 60.133 69.973 60.133 C69.643 61.783 69.313 63.433 68.973 65.133 C68.497 66.592 67.985 68.041 67.441 69.477 C67.13 70.299 66.819 71.121 66.499 71.969 C66.16 72.848 65.822 73.727 65.473 74.633 C65.116 75.564 64.759 76.496 64.392 77.455 C61.968 83.72 59.4 89.91 56.723 96.07 C53.143 104.307 49.735 112.602 46.41 120.945 C46.288 121.252 46.288 121.252 45.67 122.803 C44.069 126.822 42.472 130.842 40.875 134.862 C38.156 141.705 35.434 148.546 32.706 155.384 C31.691 157.931 30.679 160.479 29.668 163.027 C26.11 171.964 22.429 180.829 18.527 189.622 C16.981 193.114 15.471 196.62 13.973 200.133 C-1.364 200.871 -16.674 201.24 -32.027 201.258 C-32.41 201.259 -32.41 201.259 -34.349 201.265 C-42.955 201.288 -51.468 201.147 -60.027 200.133 C-59.445 194.254 -57.146 189.344 -54.777 184.008 C-53.955 182.127 -53.134 180.245 -52.312 178.363 C-52.115 177.912 -52.115 177.912 -51.114 175.63 C-49.41 171.713 -47.798 167.761 -46.195 163.801 C-45.25 161.641 -44.242 159.57 -43.168 157.474 C-41.119 153.389 -39.329 149.234 -37.602 145.004 C-36.963 143.458 -36.324 141.911 -35.686 140.365 C-34.704 137.979 -33.724 135.593 -32.744 133.206 C-28.891 123.83 -24.9 114.563 -20.561 105.401 C-18.623 101.272 -16.83 97.097 -15.09 92.883 C-14.422 91.28 -13.754 89.677 -13.086 88.074 C-12.751 87.267 -12.415 86.461 -12.07 85.629 C-10.994 83.052 -9.905 80.481 -8.812 77.91 C-8.451 77.058 -8.089 76.205 -7.717 75.327 C-7.026 73.701 -6.334 72.075 -5.641 70.45 C-3.922 66.39 -2.353 62.343 -1.027 58.133 C-1.326 58.226 -1.326 58.226 -2.84 58.695 C-5.027 59.133 -5.027 59.133 -8.027 58.133 C-9.638 58.046 -11.253 58.015 -12.866 58.019 C-13.847 58.019 -14.828 58.019 -15.838 58.02 C-16.366 58.022 -16.366 58.022 -19.039 58.035 C-20.122 58.037 -21.206 58.038 -22.322 58.039 C-25.786 58.045 -29.251 58.058 -32.715 58.07 C-35.062 58.075 -37.409 58.08 -39.756 58.084 C-45.513 58.095 -51.27 58.112 -57.027 58.133 C-58.194 53.666 -57.586 51.785 -55.344 47.73 C-53.286 43.669 -51.733 39.409 -50.135 35.149 C-48.241 30.24 -48.241 30.24 -46.027 29.133 C-46.027 31.113 -46.027 33.093 -46.027 35.133 C-42.425 27.236 -39.217 19.202 -36.027 11.133 C-36.357 10.803 -36.687 10.473 -37.027 10.133 C-38.347 13.763 -39.667 17.393 -41.027 21.133 C-41.687 21.133 -42.347 21.133 -43.027 21.133 C-43.027 22.453 -43.027 23.773 -43.027 25.133 C-43.687 25.133 -44.347 25.133 -45.027 25.133 C-44.427 19.899 -42.726 15.634 -40.59 10.883 C-40.277 10.164 -39.965 9.444 -39.643 8.703 C-37.293 3.399 -37.293 3.399 -35.027 1.133 C-32.498 0.817 -30.069 0.622 -27.529 0.516 C-26.771 0.479 -26.013 0.441 -25.232 0.402 C-16.823 0.019 -8.416 -0.012 0 0 Z M-32.027 2.133 C-31.697 2.793 -31.367 3.453 -31.027 4.133 C7.253 3.803 45.533 3.473 84.973 3.133 C84.973 2.803 84.973 2.473 84.973 2.133 C46.363 2.133 7.753 2.133 -32.027 2.133 Z M143.973 2.133 C143.973 2.463 143.973 2.793 143.973 3.133 C148.263 3.133 152.553 3.133 156.973 3.133 C156.973 2.803 156.973 2.473 156.973 2.133 C152.683 2.133 148.393 2.133 143.973 2.133 Z M218.973 2.133 C218.973 2.463 218.973 2.793 218.973 3.133 C229.203 3.133 239.433 3.133 249.973 3.133 C249.973 2.803 249.973 2.473 249.973 2.133 C239.546 0.841 229.391 0.744 218.973 2.133 Z M119.973 4.133 C119.973 4.463 119.973 4.793 119.973 5.133 C121.623 5.133 123.273 5.133 124.973 5.133 C124.973 4.803 124.973 4.473 124.973 4.133 C123.323 4.133 121.673 4.133 119.973 4.133 Z M208.973 4.133 C208.973 4.463 208.973 4.793 208.973 5.133 C210.953 5.133 212.933 5.133 214.973 5.133 C214.973 4.803 214.973 4.473 214.973 4.133 C212.993 4.133 211.013 4.133 208.973 4.133 Z M254.973 4.133 C254.973 4.463 254.973 4.793 254.973 5.133 C256.623 5.133 258.273 5.133 259.973 5.133 C259.973 4.803 259.973 4.473 259.973 4.133 C258.323 4.133 256.673 4.133 254.973 4.133 Z M262.973 6.133 C263.633 6.463 263.633 6.463 266.973 8.133 C266.643 7.473 266.313 6.813 265.973 6.133 C264.983 6.133 263.993 6.133 262.973 6.133 Z M97.973 11.133 C100.578 12.063 101.615 12.282 104.223 11.195 C104.8 10.845 105.378 10.494 105.973 10.133 C102.349 8.925 101.331 9.59 97.973 11.133 Z M180.973 9.133 C181.303 9.793 181.633 10.453 181.973 11.133 C182.633 10.803 183.293 10.473 183.973 10.133 C182.983 9.803 181.993 9.473 180.973 9.133 Z M268.973 9.133 C269.303 9.793 269.633 10.453 269.973 11.133 C270.633 10.803 271.293 10.473 271.973 10.133 C270.983 9.803 269.993 9.473 268.973 9.133 Z M90.973 14.133 C90.643 14.793 90.313 15.453 89.973 16.133 C90.633 16.133 91.293 16.133 91.973 16.133 C91.643 15.473 91.313 14.813 90.973 14.133 Z M-49.027 37.133 C-48.027 39.133 -48.027 39.133 -48.027 39.133 Z M-51.027 41.133 C-51.027 42.123 -51.027 43.113 -51.027 44.133 C-50.367 44.133 -49.707 44.133 -49.027 44.133 C-49.027 43.143 -49.027 42.153 -49.027 41.133 C-49.687 41.133 -50.347 41.133 -51.027 41.133 Z M-52.027 45.133 C-51.027 48.133 -51.027 48.133 -51.027 48.133 Z M-1.027 64.133 C-0.027 67.133 -0.027 67.133 -0.027 67.133 Z M-2.027 67.133 C-2.357 68.453 -2.687 69.773 -3.027 71.133 C-2.367 71.133 -1.707 71.133 -1.027 71.133 C-1.357 69.813 -1.687 68.493 -2.027 67.133 Z M95.973 70.133 C96.973 72.133 96.973 72.133 96.973 72.133 Z M-4.027 71.133 C-3.027 74.133 -3.027 74.133 -3.027 74.133 Z M94.973 73.133 C95.973 75.133 95.973 75.133 95.973 75.133 Z M-6.027 75.133 C-5.027 78.133 -5.027 78.133 -5.027 78.133 Z M-7.027 78.133 C-7.357 79.453 -7.687 80.773 -8.027 82.133 C-7.367 81.803 -6.707 81.473 -6.027 81.133 C-6.357 80.143 -6.687 79.153 -7.027 78.133 Z M92.973 78.133 C93.973 80.133 93.973 80.133 93.973 80.133 Z M90.973 82.133 C91.973 84.133 91.973 84.133 91.973 84.133 Z M-9.027 83.133 C-8.027 86.133 -8.027 86.133 -8.027 86.133 Z M89.973 86.133 C90.973 88.133 90.973 88.133 90.973 88.133 Z M-11.027 87.133 C-10.027 89.133 -10.027 89.133 -10.027 89.133 Z M87.973 89.133 C88.973 92.133 88.973 92.133 88.973 92.133 Z M-13.027 92.133 C-14.017 95.103 -15.007 98.073 -16.027 101.133 C-12.717 97.823 -12.524 96.601 -12.027 92.133 C-12.357 92.133 -12.687 92.133 -13.027 92.133 Z M86.973 92.133 C87.973 94.133 87.973 94.133 87.973 94.133 Z M84.973 97.133 C85.973 99.133 85.973 99.133 85.973 99.133 Z M-17.027 102.133 C-16.027 104.133 -16.027 104.133 -16.027 104.133 Z M-19.027 105.133 C-18.697 106.453 -18.367 107.773 -18.027 109.133 C-17.697 107.813 -17.367 106.493 -17.027 105.133 C-17.687 105.133 -18.347 105.133 -19.027 105.133 Z M-20.027 109.133 C-19.027 112.133 -19.027 112.133 -19.027 112.133 Z M-21.027 112.133 C-21.027 115.133 -21.027 115.133 -21.027 115.133 Z M76.973 116.133 C77.973 118.133 77.973 118.133 77.973 118.133 Z M-25.027 119.133 C-24.027 121.133 -24.027 121.133 -24.027 121.133 Z M-26.027 122.133 C-25.027 124.133 -25.027 124.133 -25.027 124.133 Z M-27.027 124.133 C-26.027 126.133 -26.027 126.133 -26.027 126.133 Z M-28.027 127.133 C-27.027 129.133 -27.027 129.133 -27.027 129.133 Z M-30.027 132.133 C-29.027 134.133 -29.027 134.133 -29.027 134.133 Z M-31.027 135.133 C-30.027 137.133 -30.027 137.133 -30.027 137.133 Z M-33.027 138.133 C-32.027 141.133 -32.027 141.133 -32.027 141.133 Z M-38.027 150.133 C-37.027 152.133 -37.027 152.133 -37.027 152.133 Z M208.973 221.133 C208.973 221.463 208.973 221.793 208.973 222.133 C211.943 222.133 214.913 222.133 217.973 222.133 C217.973 221.803 217.973 221.473 217.973 221.133 C215.003 221.133 212.033 221.133 208.973 221.133 Z M233.973 221.133 C237.973 222.133 237.973 222.133 237.973 222.133 Z M246.973 221.133 C250.973 222.133 250.973 222.133 250.973 222.133 Z " transform="translate(262.02734375,309.8671875)"/><path d="M0 0 C21.099 -0.172 21.099 -0.172 28.727 1.074 C29.727 3.074 29.727 3.074 28.83 6.055 C28.367 7.317 27.896 8.576 27.418 9.832 C26.969 11.045 26.52 12.258 26.057 13.508 C25.474 15.056 24.89 16.604 24.289 18.199 C22.453 23.108 20.618 28.017 18.727 33.074 C35.557 33.074 52.387 33.074 69.727 33.074 C70.821 36.358 70.695 36.923 69.645 40.047 C69.511 40.45 69.511 40.45 68.833 42.487 C68.682 42.924 68.682 42.924 67.914 45.137 C67.603 46.043 67.292 46.95 66.971 47.884 C65.905 50.953 64.817 54.014 63.727 57.074 C63.522 57.655 63.522 57.655 62.49 60.591 C61.219 64.178 59.915 67.752 58.602 71.324 C58.194 72.473 57.787 73.621 57.368 74.805 C56.968 75.868 56.568 76.932 56.156 78.027 C55.982 78.503 55.982 78.503 55.101 80.907 C53.727 83.074 53.727 83.074 51.446 83.703 C48.869 84.055 46.443 84.195 43.844 84.188 C42.904 84.188 41.963 84.188 40.994 84.188 C39.992 84.182 38.99 84.177 37.957 84.172 C36.921 84.17 35.885 84.169 34.817 84.168 C31.516 84.162 28.215 84.149 24.914 84.137 C22.673 84.132 20.431 84.127 18.189 84.123 C12.702 84.112 7.214 84.095 1.727 84.074 C1.417 84.822 1.108 85.57 0.789 86.341 C-1.279 91.324 -3.357 96.3 -5.52 101.242 C-9.309 109.909 -12.918 118.553 -15.951 127.514 C-18.453 134.81 -21.415 141.911 -24.379 149.029 C-24.566 149.48 -24.566 149.48 -25.516 151.762 C-25.854 152.57 -26.193 153.378 -26.542 154.211 C-27.273 156.074 -27.273 156.074 -27.273 157.074 C-10.443 157.404 6.387 157.734 23.727 158.074 C24.942 162.935 24.093 164.347 22.164 168.887 C21.606 170.219 21.049 171.551 20.492 172.883 C20.202 173.568 19.911 174.254 19.611 174.96 C17.886 179.083 16.275 183.252 14.644 187.413 C12.837 191.963 12.837 191.963 11.727 193.074 C2.863 194.495 -6.211 194.221 -15.16 194.207 C-16.672 194.208 -18.184 194.209 -19.696 194.21 C-22.846 194.211 -25.995 194.209 -29.144 194.205 C-33.162 194.199 -37.179 194.202 -41.197 194.208 C-44.312 194.212 -47.427 194.211 -50.542 194.208 C-52.023 194.207 -53.504 194.208 -54.985 194.211 C-78.051 194.239 -78.051 194.239 -86.273 186.074 C-89.052 181.829 -90.573 177.618 -89.97 172.503 C-87.76 164.028 -84.705 155.972 -81.491 147.838 C-79.812 143.585 -78.158 139.322 -76.504 135.059 C-76.332 134.616 -76.332 134.616 -75.462 132.374 C-71.452 122.011 -67.637 111.578 -63.836 101.137 C-63.503 100.224 -63.171 99.312 -62.828 98.371 C-60.972 93.274 -59.121 88.175 -57.273 83.074 C-58.505 83.237 -59.737 83.4 -61.006 83.568 C-63.871 83.926 -66.663 84.196 -69.555 84.172 C-69.903 84.17 -69.903 84.17 -71.664 84.162 C-72.012 84.158 -72.012 84.158 -73.773 84.137 C-74.5 84.132 -75.227 84.128 -75.977 84.123 C-77.742 84.111 -79.508 84.094 -81.273 84.074 C-82.956 79.141 -81.274 75.421 -79.449 70.809 C-79.147 70.016 -78.844 69.223 -78.532 68.406 C-77.562 65.874 -76.574 63.349 -75.586 60.824 C-74.94 59.141 -74.294 57.457 -73.65 55.773 C-70.703 48.111 -67.612 40.586 -64.273 33.074 C-60.973 32.909 -60.973 32.909 -44.273 32.074 C-40.913 24.233 -40.913 24.233 -39.809 20.918 C-39.566 20.205 -39.323 19.492 -39.072 18.758 C-38.582 17.303 -38.095 15.848 -37.611 14.391 C-36.882 12.262 -36.092 10.169 -35.273 8.074 C-35.039 7.395 -34.804 6.717 -34.562 6.017 C-33.742 4.102 -33.742 4.102 -31.273 1.074 C-27.765 0.025 -24.351 0.096 -20.711 0.137 C-19.665 0.122 -18.619 0.107 -17.541 0.092 C-11.694 0.026 -5.847 0.066 0 0 Z M-31.273 4.074 C-30.273 6.074 -30.273 6.074 -30.273 6.074 Z M-56.273 34.074 C-56.273 34.404 -56.273 34.734 -56.273 35.074 C-53.303 35.404 -50.333 35.734 -47.273 36.074 C-50.709 33.784 -52.259 33.896 -56.273 34.074 Z M-63.273 35.074 C-62.273 37.074 -62.273 37.074 -62.273 37.074 Z M17.727 35.074 C17.727 35.404 17.727 35.734 17.727 36.074 C34.557 36.074 51.387 36.074 68.727 36.074 C64.226 33.824 64.226 33.824 60.604 33.831 C59.803 33.828 59.002 33.825 58.176 33.822 C57.747 33.826 57.747 33.826 55.578 33.844 C55.133 33.844 55.133 33.844 52.881 33.845 C51 33.848 49.118 33.856 47.237 33.868 C44.369 33.887 41.501 33.889 38.633 33.889 C36.802 33.894 34.971 33.899 33.141 33.906 C32.287 33.907 31.434 33.908 30.555 33.91 C26.169 33.944 22.044 34.198 17.727 35.074 Z M-14.273 159.074 C-14.273 159.404 -14.273 159.734 -14.273 160.074 C-6.353 160.074 1.567 160.074 9.727 160.074 C9.727 159.744 9.727 159.414 9.727 159.074 C1.807 159.074 -6.113 159.074 -14.273 159.074 Z " transform="translate(892.2734375,316.92578125)"/><path d="M0 0 C0.373 -0.001 0.373 -0.001 2.262 -0.005 C4.741 -0.01 7.219 -0.007 9.697 -0.003 C11.421 -0.004 13.146 -0.005 14.87 -0.006 C18.493 -0.008 22.115 -0.006 25.737 -0.001 C30.362 0.005 34.986 0.001 39.61 -0.005 C43.177 -0.008 46.743 -0.007 50.309 -0.004 C52.013 -0.004 53.716 -0.005 55.42 -0.007 C82.971 -0.036 82.971 -0.036 94.756 9.129 C100.13 14.633 103.248 19.263 103.756 27.129 C102.842 33.896 100.877 40.289 98.568 46.692 C98.262 47.554 97.956 48.416 97.641 49.304 C95.373 55.611 92.901 61.815 90.305 67.993 C88.412 72.501 86.633 77.04 84.943 81.629 C78.987 97.716 72.448 113.583 65.85 129.415 C65.296 130.744 64.744 132.073 64.193 133.404 C54.779 156.106 54.779 156.106 51.756 159.129 C49.352 159.26 46.977 159.326 44.572 159.351 C43.818 159.362 43.065 159.374 42.289 159.385 C39.775 159.422 37.262 159.452 34.748 159.481 C32.988 159.504 31.229 159.527 29.469 159.551 C25.758 159.6 22.048 159.645 18.337 159.687 C14.572 159.73 10.807 159.779 7.043 159.833 C-28.44 160.338 -28.44 160.338 -42.737 159.965 C-43.589 159.958 -44.442 159.951 -45.32 159.944 C-52.943 159.643 -59.215 156.566 -65.119 151.817 C-71.248 144.065 -72.331 136.892 -71.519 127.147 C-69.205 110.164 -55.84 96.191 -42.891 86.11 C-32.123 78.098 -20.284 73.181 -7.244 70.129 C-6.363 69.905 -5.481 69.681 -4.573 69.45 C1.878 67.95 8.157 67.925 14.756 68.129 C13.581 80.81 13.581 80.81 10.756 86.129 C8.681 87.782 6.637 88.814 4.236 89.934 C-3.239 93.536 -8.391 98.317 -11.244 106.129 C-12.689 110.463 -12.901 114.605 -12.244 119.129 C-9.296 122.17 -5.619 122.832 -1.428 123.172 C2.767 123.09 6.19 122.413 9.756 120.129 C14.272 114.496 16.158 106.51 18.438 99.723 C20.203 94.489 22.276 89.425 24.422 84.337 C26.703 78.851 28.818 73.302 30.943 67.754 C31.162 67.187 31.162 67.187 32.269 64.313 C34.202 59.28 36.078 54.255 37.756 49.129 C37.426 49.294 37.426 49.294 35.756 50.129 C33.785 50.221 31.81 50.247 29.837 50.243 C28.596 50.243 27.355 50.243 26.076 50.243 C24.717 50.238 23.357 50.232 21.998 50.227 C20.611 50.225 19.223 50.224 17.836 50.223 C14.183 50.219 10.53 50.209 6.877 50.198 C3.151 50.188 -0.576 50.183 -4.303 50.178 C-11.617 50.167 -18.931 50.15 -26.244 50.129 C-27.535 45.916 -26.612 43.793 -24.928 39.704 C-24.801 39.391 -24.801 39.391 -24.16 37.811 C-23.344 35.808 -22.513 33.813 -21.682 31.817 C-21.149 30.517 -20.617 29.217 -20.086 27.917 C-19.289 25.966 -18.49 24.016 -17.684 22.069 C-16.277 18.672 -14.901 15.267 -13.573 11.839 C-13.303 11.147 -13.034 10.455 -12.756 9.742 C-12.24 8.414 -11.73 7.085 -11.226 5.753 C-8.796 -0.481 -6.184 -0.018 0 0 Z M58.108 1.108 C56.807 1.128 55.506 1.148 54.166 1.169 C52.761 1.196 51.356 1.223 49.951 1.25 C48.502 1.275 47.053 1.299 45.605 1.322 C41.807 1.385 38.01 1.454 34.212 1.524 C30.331 1.595 26.449 1.66 22.568 1.725 C14.964 1.854 7.36 1.989 -0.244 2.129 C-0.244 2.459 -0.244 2.789 -0.244 3.129 C23.186 3.129 46.616 3.129 70.756 3.129 C70.756 2.799 70.756 2.469 70.756 2.129 C66.465 1.302 62.473 1.031 58.108 1.108 Z M79.756 3.129 C79.756 3.789 79.756 4.449 79.756 5.129 C80.746 4.799 81.736 4.469 82.756 4.129 C81.766 3.799 80.776 3.469 79.756 3.129 Z M7.756 69.129 C7.756 69.459 7.756 69.789 7.756 70.129 C9.406 70.129 11.056 70.129 12.756 70.129 C12.756 69.799 12.756 69.469 12.756 69.129 C11.106 69.129 9.456 69.129 7.756 69.129 Z M-1.244 70.129 C-2.234 70.789 -3.224 71.449 -4.244 72.129 C-1.934 72.129 0.376 72.129 2.756 72.129 C1.436 71.469 0.116 70.809 -1.244 70.129 Z M-10.244 72.129 C-10.244 72.459 -10.244 72.789 -10.244 73.129 C-8.594 73.129 -6.944 73.129 -5.244 73.129 C-5.244 72.799 -5.244 72.469 -5.244 72.129 C-6.894 72.129 -8.544 72.129 -10.244 72.129 Z M-12.244 73.129 C-13.234 73.789 -14.224 74.449 -15.244 75.129 C-13.924 75.129 -12.604 75.129 -11.244 75.129 C-11.574 74.469 -11.904 73.809 -12.244 73.129 Z M-19.244 75.129 C-19.904 75.789 -20.564 76.449 -21.244 77.129 C-19.594 76.799 -17.944 76.469 -16.244 76.129 C-17.234 75.799 -18.224 75.469 -19.244 75.129 Z M-50.244 94.129 C-49.244 96.129 -49.244 96.129 -49.244 96.129 Z M-5.244 125.129 C-5.244 125.459 -5.244 125.789 -5.244 126.129 C-2.604 126.129 0.036 126.129 2.756 126.129 C2.756 125.799 2.756 125.469 2.756 125.129 C0.116 125.129 -2.524 125.129 -5.244 125.129 Z " transform="translate(572.244384765625,350.87060546875)"/><path d="M0 0 C1.726 4.101 0.093 7.476 -1.352 11.406 C-1.607 12.127 -1.863 12.847 -2.127 13.59 C-2.672 15.118 -3.222 16.644 -3.777 18.169 C-4.611 20.461 -5.43 22.757 -6.246 25.055 C-9.257 33.479 -12.446 41.787 -16 50 C-22.179 50.911 -28.165 51.133 -34.406 51.098 C-35.372 51.096 -36.337 51.095 -37.331 51.093 C-40.388 51.088 -43.444 51.075 -46.5 51.062 C-48.583 51.057 -50.667 51.053 -52.75 51.049 C-57.833 51.038 -62.917 51.021 -68 51 C-68.413 52.046 -68.825 53.093 -69.25 54.171 C-72.561 62.568 -75.873 70.964 -79.188 79.359 C-79.508 80.171 -79.828 80.983 -80.158 81.819 C-83.005 89.026 -85.882 96.221 -88.773 103.41 C-90.74 108.325 -92.671 113.254 -94.602 118.184 C-95.607 120.745 -96.613 123.307 -97.618 125.869 C-98.279 127.554 -98.938 129.24 -99.596 130.927 C-103.436 140.773 -107.419 150.469 -112 160 C-132.4 161.199 -152.599 160.784 -173 160 C-174.307 156.079 -173.352 154.725 -171.812 150.938 C-171.386 149.874 -170.959 148.811 -170.52 147.715 C-170.279 147.126 -170.038 146.538 -169.79 145.931 C-165.94 136.518 -162.255 127.038 -158.562 117.562 C-158.411 117.174 -158.411 117.174 -157.644 115.205 C-152.184 101.18 -146.904 87.093 -141.692 72.974 C-141.434 72.275 -141.176 71.576 -140.91 70.855 C-140.658 70.172 -140.405 69.488 -140.145 68.784 C-137.994 62.964 -135.788 57.166 -133.562 51.375 C-131.301 45.488 -129.128 39.583 -127.062 33.625 C-124.594 26.531 -121.954 19.508 -119.25 12.5 C-118.861 11.477 -118.472 10.455 -118.071 9.401 C-117.702 8.454 -117.333 7.507 -116.953 6.531 C-116.625 5.681 -116.296 4.831 -115.958 3.955 C-115 2 -115 2 -113 1 C-111.182 0.909 -109.361 0.882 -107.541 0.886 C-106.97 0.887 -106.97 0.887 -104.083 0.887 C-102.846 0.892 -101.61 0.897 -100.336 0.902 C-99.074 0.904 -97.811 0.905 -96.511 0.907 C-93.154 0.911 -89.797 0.92 -86.44 0.931 C-83.014 0.942 -79.589 0.946 -76.164 0.951 C-69.443 0.962 -62.721 0.979 -56 1 C-54.745 4.766 -55.629 6.372 -57 10 C-56.334 9.602 -55.667 9.203 -54.98 8.793 C-37.556 -1.223 -19.519 -0.161 0 0 Z M-112 3 C-112 3.33 -112 3.66 -112 4 C-104.41 4 -96.82 4 -89 4 C-89 3.67 -89 3.34 -89 3 C-96.59 3 -104.18 3 -112 3 Z M-88 3 C-88 3.33 -88 3.66 -88 4 C-78.43 4 -68.86 4 -59 4 C-59 3.67 -59 3.34 -59 3 C-68.57 3 -78.14 3 -88 3 Z M-38 3 C-38 3.33 -38 3.66 -38 4 C-34.7 4 -31.4 4 -28 4 C-28 3.67 -28 3.34 -28 3 C-31.3 3 -34.6 3 -38 3 Z M-41 4 C-41.66 4.66 -42.32 5.32 -43 6 C-41.35 5.67 -39.7 5.34 -38 5 C-38.99 4.67 -39.98 4.34 -41 4 Z M-47 6 C-47.33 6.66 -47.66 7.32 -48 8 C-46.68 7.34 -45.36 6.68 -44 6 C-44.99 6 -45.98 6 -47 6 Z " transform="translate(813,350)"/><path d="M0 0 C0.413 0.005 0.413 0.005 2.506 0.028 C2.984 0.031 2.984 0.031 5.407 0.045 C5.939 0.053 5.939 0.053 8.631 0.095 C9.196 0.1 9.196 0.1 12.057 0.124 C15.242 0.152 18.427 0.189 21.612 0.23 C25.127 0.271 28.642 0.3 32.156 0.329 C38.408 0.383 44.66 0.443 50.912 0.506 C68.511 0.683 86.11 0.823 103.709 0.949 C104.193 0.953 104.193 0.953 106.641 0.971 C143.564 1.238 180.485 1.256 217.409 1.208 C222.596 1.201 227.782 1.195 232.968 1.189 C260.439 1.16 287.91 1.128 315.38 1.055 C327.477 1.023 339.573 1.001 351.669 0.989 C359.622 0.981 367.575 0.96 375.529 0.929 C380.39 0.913 385.251 0.909 390.112 0.909 C392.361 0.907 394.61 0.899 396.859 0.886 C399.906 0.869 402.953 0.87 406 0.876 C406.894 0.867 407.788 0.858 408.709 0.848 C411.16 0.864 411.16 0.864 415.01 1.23 C415.67 2.22 416.33 3.21 417.01 4.23 C416.35 4.89 415.69 5.55 415.01 6.23 C415.01 5.57 415.01 4.91 415.01 4.23 C381.799 4.1 348.588 3.972 315.377 3.848 C311.363 3.833 307.348 3.818 303.334 3.803 C302.535 3.8 301.737 3.797 300.914 3.794 C289.89 3.753 278.866 3.71 267.841 3.667 C248.701 3.591 229.56 3.518 210.42 3.449 C209.66 3.446 208.901 3.444 208.118 3.441 C138.415 3.19 68.713 3.174 -0.99 3.23 C-1.65 5.21 -2.31 7.19 -2.99 9.23 C-3.98 9.23 -4.97 9.23 -5.99 9.23 C-3.708 0.429 -3.708 0.429 0 0 Z " transform="translate(539.9901723861694,545.7695217132568)"/><path d="M0 0 C14.452 -0.096 28.903 -0.104 43.355 -0.096 C49.625 -0.093 55.896 -0.096 62.166 -0.097 C73.32 -0.099 84.474 -0.096 95.628 -0.091 C105.739 -0.086 115.85 -0.087 125.96 -0.092 C137.767 -0.097 149.574 -0.099 161.381 -0.096 C167.609 -0.095 173.837 -0.094 180.066 -0.098 C185.892 -0.101 191.718 -0.099 197.544 -0.093 C199.685 -0.092 201.826 -0.092 203.966 -0.094 C206.876 -0.097 209.786 -0.093 212.695 -0.088 C213.551 -0.091 214.407 -0.093 215.288 -0.095 C221.11 -0.076 221.11 -0.076 223.338 1.039 C223.397 4.893 223.432 8.747 223.463 12.601 C223.48 13.687 223.497 14.773 223.514 15.892 C223.549 21.683 223.328 26.58 221.338 32.039 C215.926 33.164 210.689 33.178 205.189 33.166 C204.169 33.167 203.15 33.169 202.099 33.17 C198.684 33.174 195.269 33.171 191.854 33.168 C189.405 33.169 186.955 33.171 184.506 33.173 C178.542 33.177 172.578 33.177 166.614 33.174 C161.761 33.172 156.908 33.171 152.056 33.172 C151.364 33.173 150.673 33.173 149.96 33.173 C148.555 33.173 147.15 33.173 145.745 33.174 C132.57 33.177 119.394 33.173 106.218 33.168 C94.939 33.164 83.659 33.164 72.379 33.169 C59.264 33.174 46.148 33.176 33.033 33.173 C31.631 33.173 30.228 33.173 28.826 33.172 C28.136 33.172 27.446 33.172 26.735 33.172 C21.898 33.171 17.062 33.172 12.225 33.175 C5.694 33.178 -0.837 33.176 -7.368 33.17 C-9.756 33.169 -12.145 33.169 -14.533 33.171 C-48.339 33.2 -48.339 33.2 -52.662 31.039 C-52.116 25.728 -50.295 21.834 -47.787 17.226 C-47.611 16.886 -47.611 16.886 -46.72 15.166 C-44.037 10.164 -44.037 10.164 -40.662 9.039 C-40.332 8.379 -40.002 7.719 -39.662 7.039 C-40.322 6.709 -40.982 6.379 -41.662 6.039 C-38.427 1.236 -38.427 1.236 -35.106 0.381 C-34.614 0.374 -34.614 0.374 -32.124 0.336 C-30.968 0.308 -29.811 0.279 -28.619 0.25 C-27.328 0.245 -26.037 0.24 -24.706 0.234 C-23.297 0.212 -21.889 0.187 -20.48 0.161 C-16.439 0.096 -12.397 0.069 -8.355 0.051 C-5.57 0.038 -2.785 0.02 0 0 Z M-27.662 2.039 C-27.662 2.369 -27.662 2.699 -27.662 3.039 C-25.682 3.039 -23.702 3.039 -21.662 3.039 C-21.662 2.709 -21.662 2.379 -21.662 2.039 C-23.642 2.039 -25.622 2.039 -27.662 2.039 Z M-37.662 3.039 C-36.662 5.039 -36.662 5.039 -36.662 5.039 Z " transform="translate(143.66161346435547,545.9614486694336)"/><path d="M0 0 C1.005 -0.001 2.011 -0.003 3.047 -0.004 C3.572 -0.002 3.572 -0.002 6.227 0.008 C7.268 0.004 8.31 0 9.383 -0.004 C10.391 -0.003 11.399 -0.001 12.438 0 C12.897 0.001 12.897 0.001 15.22 0.003 C17.856 0.133 20.282 0.548 22.852 1.133 C22.852 1.463 22.852 1.793 22.852 2.133 C21.648 2.17 20.444 2.208 19.203 2.246 C17.628 2.312 16.052 2.378 14.477 2.445 C13.683 2.468 12.888 2.49 12.07 2.514 C9.989 2.611 7.917 2.863 5.852 3.133 C5.522 3.628 5.522 3.628 3.852 6.133 C4.677 6.298 4.677 6.298 8.852 7.133 C8.192 8.453 7.532 9.773 6.852 11.133 C7.842 11.463 8.832 11.793 9.852 12.133 C8.862 12.793 7.872 13.453 6.852 14.133 C8.172 14.463 9.492 14.793 10.852 15.133 C11.512 17.773 12.172 20.413 12.852 23.133 C12.522 23.298 12.522 23.298 10.852 24.133 C30.286 25.11 49.702 25.34 69.155 25.436 C72.643 25.454 76.13 25.475 79.618 25.496 C89.081 25.553 98.544 25.603 108.008 25.65 C114.956 25.685 121.904 25.722 128.852 25.759 C216.851 26.233 304.851 26.242 392.852 26.133 C389.22 28.554 387.559 28.382 383.235 28.382 C382.556 28.384 381.877 28.387 381.178 28.39 C378.886 28.396 376.595 28.388 374.303 28.38 C372.65 28.382 370.998 28.384 369.345 28.387 C364.789 28.394 360.234 28.388 355.678 28.38 C350.77 28.373 345.862 28.378 340.954 28.381 C331.331 28.387 321.709 28.381 312.086 28.372 C300.881 28.361 289.676 28.361 278.471 28.362 C258.473 28.362 238.475 28.353 218.477 28.339 C199.074 28.325 179.672 28.317 160.27 28.318 C159.673 28.318 159.673 28.318 156.652 28.318 C156.056 28.318 156.056 28.318 153.041 28.318 C130.959 28.319 108.877 28.313 86.796 28.304 C78.988 28.301 71.18 28.3 63.372 28.3 C53.848 28.299 44.325 28.295 34.801 28.285 C29.943 28.281 25.085 28.278 20.227 28.279 C15.776 28.28 11.325 28.276 6.873 28.269 C5.267 28.267 3.661 28.267 2.054 28.269 C-6.394 28.277 -14.747 28.119 -23.148 27.133 C-23.148 26.803 -23.148 26.473 -23.148 26.133 C-21.993 25.968 -21.993 25.968 -16.148 25.133 C-16.478 24.143 -16.808 23.153 -17.148 22.133 C-16.273 19.352 -15.297 16.805 -14.148 14.133 C-13.675 13.018 -13.202 11.903 -12.715 10.754 C-9.659 3.812 -9.659 3.812 -8.148 1.133 C-5.148 0.133 -3.134 0.004 0 0 Z M5.852 17.133 C5.852 18.123 5.852 19.113 5.852 20.133 C6.512 19.143 7.172 18.153 7.852 17.133 C7.192 17.133 6.532 17.133 5.852 17.133 Z M8.852 20.133 C8.852 20.793 8.852 21.453 8.852 22.133 C9.512 22.133 10.172 22.133 10.852 22.133 C10.852 21.473 10.852 20.813 10.852 20.133 C10.192 20.133 9.532 20.133 8.852 20.133 Z " transform="translate(549.1484375,550.8671875)"/><path d="M0 0 C1.503 4.509 -0.188 8.087 -2.004 12.363 C-3.068 15.18 -3.625 17.846 -4.125 20.812 C-4.293 21.788 -4.46 22.764 -4.633 23.77 C-4.754 24.506 -4.875 25.242 -5 26 C-5.99 26 -6.98 26 -8 26 C-3.131 3.131 -3.131 3.131 0 0 Z " transform="translate(46,566)"/></g>
<g fill="url(#fmGold)" fill-rule="nonzero"><path d="M0 0 C1.628 0.095 3.26 0.146 4.891 0.158 C5.849 0.168 6.807 0.178 7.793 0.188 C8.832 0.194 9.871 0.199 10.941 0.205 C12.044 0.215 13.146 0.225 14.283 0.235 C17.924 0.267 21.566 0.292 25.207 0.316 C27.733 0.337 30.26 0.358 32.786 0.379 C38.753 0.429 44.721 0.474 50.688 0.517 C57.484 0.567 64.28 0.622 71.075 0.677 C85.05 0.791 99.025 0.898 113 1 C114.221 5.035 113.532 6.689 111.641 10.488 C111.374 11.032 111.374 11.032 110.025 13.783 C109.732 14.365 109.732 14.365 108.25 17.312 C107.649 18.53 107.049 19.748 106.45 20.967 C105.228 23.453 104 25.936 102.769 28.417 C100.236 33.547 97.771 38.709 95.312 43.875 C94.413 45.758 93.513 47.641 92.613 49.523 C89.662 55.706 86.717 61.892 83.773 68.079 C81.121 73.652 78.459 79.221 75.793 84.788 C68.138 100.774 60.601 116.807 53.211 132.917 C50.569 138.664 47.87 144.363 45 150 C46.941 151.941 50.473 151.399 53.062 151.562 C54.353 151.646 55.643 151.73 56.973 151.816 C57.972 151.877 58.971 151.938 60 152 C60 152.33 60 152.66 60 153 C69.24 153.33 78.48 153.66 88 154 C87.116 159.301 86.557 161.218 83.875 165.5 C81.322 169.719 78.975 173.943 76.812 178.375 C73.806 184.503 70.558 190.467 67.25 196.438 C62.463 205.106 58.085 213.91 53.871 222.869 C50.772 229.441 47.489 235.861 44.013 242.24 C42.029 245.916 40.15 249.638 38.293 253.379 C37.589 254.791 36.886 256.203 36.182 257.615 C35.823 258.338 35.464 259.06 35.093 259.804 C33.307 263.393 31.512 266.977 29.719 270.562 C29.016 271.969 28.312 273.375 27.609 274.781 C24.406 281.188 21.203 287.594 18 294 C18.474 293.99 18.474 293.99 20.875 293.938 C24 294 24 294 26 295 C28.449 295.099 30.864 295.139 33.312 295.125 C34.629 295.128 35.945 295.13 37.301 295.133 C40.359 295.023 43.039 294.722 46 294 C46.33 294.495 46.33 294.495 48 297 C44.682 303.998 40.718 310.494 36.625 317.062 C35.551 318.795 34.477 320.529 33.404 322.263 C32.675 323.441 31.945 324.62 31.215 325.797 C27.651 331.552 24.136 337.337 20.625 343.125 C16.828 349.377 13.014 355.617 9.125 361.812 C-6.136 386.123 -21.177 410.608 -35.688 435.375 C-41.643 445.526 -47.935 455.445 -54.298 465.344 C-57.033 469.611 -59.735 473.899 -62.438 478.188 C-65.584 483.18 -68.744 488.162 -71.938 493.125 C-74.824 497.645 -77.467 502.273 -80 507 C-80.66 507 -81.32 507 -82 507 C-83.075 509.652 -84.095 512.284 -85 515 C-85.66 515 -86.32 515 -87 515 C-87.041 515.268 -87.041 515.268 -87.25 516.625 C-88.268 519.848 -90.078 522.231 -92 525 C-92.268 525.474 -92.268 525.474 -93.625 527.875 C-94.079 528.576 -94.532 529.278 -95 530 C-95.66 530 -96.32 530 -97 530 C-96.835 530.495 -96.835 530.495 -96 533 C-96.66 533 -97.32 533 -98 533 C-98.062 533.309 -98.062 533.309 -98.375 534.875 C-99 537 -99 537 -101 539 C-101.25 531.375 -101.25 531.375 -99 528 C-98.67 528 -98.34 528 -98 528 C-97.818 527.094 -97.636 526.188 -97.449 525.254 C-96.149 518.954 -94.731 512.898 -92.562 506.844 C-91.852 504.516 -91.766 502.416 -92 500 C-91.34 500 -90.68 500 -90 500 C-90 498.35 -90 496.7 -90 495 C-89.01 494.67 -88.02 494.34 -87 494 C-87.33 492.35 -87.66 490.7 -88 489 C-87.34 489 -86.68 489 -86 489 C-86.113 488.371 -86.113 488.371 -86.688 485.188 C-87.074 483.043 -87.074 483.043 -87 481 C-86.021 479.979 -85.018 478.981 -84 478 C-81.699 472.053 -80.731 466.333 -81 460 C-80.67 459.34 -80.34 458.68 -80 458 C-79.34 458 -78.68 458 -78 458 C-78.206 457.299 -78.412 456.598 -78.625 455.875 C-79.084 452.359 -78.258 450.284 -77 447 C-76.853 446.406 -76.706 445.811 -76.555 445.199 C-75.842 442.374 -74.923 439.639 -74 436.875 C-73.649 435.821 -73.299 434.766 -72.938 433.68 C-72 431 -72 431 -71 429 C-70.835 428.34 -70.67 427.68 -70.5 427 C-70 425 -70 425 -69 423 C-68.641 421.548 -68.311 420.088 -68 418.625 C-66.168 410.064 -66.168 410.064 -64 406 C-62.702 403.403 -62.64 400.859 -62.312 398.008 C-61.919 395.478 -60.979 393.362 -60 391 C-59.729 389.738 -59.459 388.476 -59.18 387.176 C-57.818 380.893 -55.921 374.776 -54.062 368.625 C-46.849 344.643 -46.849 344.643 -46 337 C-46.817 337.327 -47.635 337.655 -48.477 337.992 C-52.593 339.17 -56.13 339.225 -60.375 339.125 C-61.111 339.116 -61.847 339.107 -62.605 339.098 C-64.404 339.074 -66.202 339.038 -68 339 C-68.59 336.582 -68.59 336.582 -69 334 C-68.526 333.567 -68.051 333.134 -67.562 332.688 C-66 331 -66 331 -66 327 C-66 323 -66 323 -64.5 321.438 C-64.005 320.963 -63.51 320.489 -63 320 C-62.812 316.313 -62.812 316.313 -63 313 C-62.34 312.67 -61.68 312.34 -61 312 C-61 310.35 -61 308.7 -61 307 C-60.34 306.67 -59.68 306.34 -59 306 C-59 305.34 -59 304.68 -59 304 C-58.34 304 -57.68 304 -57 304 C-57.186 302.928 -57.371 301.855 -57.562 300.75 C-58.036 296.695 -57.875 294.658 -56.008 291.121 C-54.748 288.47 -54.295 285.77 -53.703 282.91 C-52.613 278.4 -51.179 274.003 -49.764 269.585 C-48.075 264.304 -48.075 264.304 -47.441 261.73 C-47 260 -47 260 -45.5 256.625 C-44.127 253.308 -43.481 250.531 -43 247 C-42.67 246.01 -42.34 245.02 -42 244 C-41.328 241.668 -40.661 239.335 -40 237 C-39.67 237.66 -39.67 237.66 -38 241 C-38.268 239.866 -38.536 238.731 -38.812 237.562 C-39.619 230.932 -37.147 224.916 -35.129 218.695 C-34 215 -34 215 -34 212 C-40.93 212 -47.86 212 -55 212 C-56.098 206.508 -56.098 206.508 -55 203 C-54.658 201.356 -54.325 199.71 -54 198.062 C-53.835 197.228 -53.67 196.394 -53.5 195.535 C-53.154 193.778 -52.843 192.014 -52.562 190.246 C-52.47 189.875 -52.47 189.875 -52 188 C-51.34 187.67 -50.68 187.34 -50 187 C-50.017 186.732 -50.017 186.732 -50.105 185.375 C-50.395 177.001 -48.69 169.152 -47 161 C-46.848 160.236 -46.696 159.471 -46.539 158.684 C-45.404 153.03 -44.196 147.391 -43 141.75 C-42.931 141.422 -42.931 141.422 -42.584 139.764 C-42.185 137.857 -41.78 135.952 -41.375 134.047 C-41.135 132.911 -40.895 131.775 -40.648 130.604 C-40 128 -40 128 -39 127 C-38.837 125.42 -38.721 123.835 -38.625 122.25 C-38.175 116.689 -37.062 111.451 -35.719 106.043 C-35.01 103.041 -34.474 100.047 -34 97 C-33.34 97 -32.68 97 -32 97 C-32.227 96.196 -32.454 95.391 -32.688 94.562 C-33.199 88.732 -31.213 83.819 -28 79 C-28.66 79 -29.32 79 -30 79 C-29.514 75.877 -29.001 73.004 -28 70 C-27.666 68.108 -27.357 66.211 -27.062 64.312 C-26.483 60.724 -25.861 57.203 -24.938 53.688 C-24.025 50.098 -23.458 46.667 -23 43 C-22.01 43 -21.02 43 -20 43 C-20 41.68 -20 40.36 -20 39 C-20.66 38.67 -21.32 38.34 -22 38 C-21.845 37.588 -21.845 37.588 -21.062 35.5 C-19.877 31.595 -19.45 28.054 -19 24 C-18.501 21.192 -17.904 18.711 -17 16 C-16.625 14.108 -16.273 12.212 -15.938 10.312 C-15.761 9.319 -15.584 8.325 -15.402 7.301 C-15.27 6.542 -15.137 5.782 -15 5 C-14.01 4.67 -13.02 4.34 -12 4 C-12 3.01 -12 2.02 -12 1 C-7.417 -0.528 -4.658 -1.031 0 0 Z M-18 24 C-17 28 -17 28 -17 28 Z M-23 52 C-22 55 -22 55 -22 55 Z M-33 98 C-32 101 -32 101 -32 101 Z M-34 103 C-34 105.31 -34 107.62 -34 110 C-33.67 110 -33.34 110 -33 110 C-33 107.69 -33 105.38 -33 103 C-33.33 103 -33.66 103 -34 103 Z M-39 134 C-38 136 -38 136 -38 136 Z M-42 143 C-42 144.98 -42 146.96 -42 149 C-41.67 149 -41.34 149 -41 149 C-41 147.02 -41 145.04 -41 143 C-41.33 143 -41.66 143 -42 143 Z M-43 154 C-43.33 154.66 -43.66 155.32 -44 156 C-43.34 156 -42.68 156 -42 156 C-42.33 155.34 -42.66 154.68 -43 154 Z M-34 220 C-33 222 -33 222 -33 222 Z M-49 270 C-48.67 270.99 -48.34 271.98 -48 273 C-47.67 272.01 -47.34 271.02 -47 270 C-47.66 270 -48.32 270 -49 270 Z M-50 360 C-49 363 -49 363 -49 363 Z M-61 397 C-60 399 -60 399 -60 399 Z M-62 399 C-61 401 -61 401 -61 401 Z M-66 415 C-65 417 -65 417 -65 417 Z M-73 437 C-72 440 -72 440 -72 440 Z M-74 442 C-73 444 -73 444 -73 444 Z M-77 450 C-76 453 -76 453 -76 453 Z " transform="translate(138,64)"/><path d="M0 0 C38.61 0 77.22 0 117 0 C117 0.33 117 0.66 117 1 C78.39 1 39.78 1 0 1 C0 0.67 0 0.34 0 0 Z " transform="translate(356,63)"/><path d="M0 0 C0 0.33 0 0.66 0 1 C-11.88 1 -23.76 1 -36 1 C-36 0.67 -36 0.34 -36 0 C-24.508 -2.681 -11.687 -0.792 0 0 Z " transform="translate(302,129)"/><path d="M0 0 C13.86 0 27.72 0 42 0 C42 0.33 42 0.66 42 1 C28.14 1 14.28 1 0 1 C0 0.67 0 0.34 0 0 Z " transform="translate(385,130)"/><path d="M0 0 C16.5 0 33 0 50 0 C50 0.33 50 0.66 50 1 C33.5 1 17 1 0 1 C0 0.67 0 0.34 0 0 Z " transform="translate(484,130)"/><path d="M0 0 C1.839 5.217 -0.773 9.249 -3 14 C-4.589 17.048 -6.255 20.039 -8 23 C-9.96 19.081 -8.174 14.563 -6.938 10.562 C-6.783 10.14 -6.783 10.14 -6 8 C-5.34 8 -4.68 8 -4 8 C-3.856 7.402 -3.711 6.804 -3.562 6.188 C-3.113 4.438 -2.571 2.713 -2 1 C-1.34 0.67 -0.68 0.34 0 0 Z " transform="translate(250,151)"/><path d="M0 0 C14.85 0 29.7 0 45 0 C45 0.33 45 0.66 45 1 C30.15 1 15.3 1 0 1 C0 0.67 0 0.34 0 0 Z " transform="translate(631,197)"/><path d="M0 0 C14.85 0 29.7 0 45 0 C45 0.33 45 0.66 45 1 C30.15 1 15.3 1 0 1 C0 0.67 0 0.34 0 0 Z " transform="translate(760,250)"/><path d="M0 0 C38.61 0 77.22 0 117 0 C117 0.33 117 0.66 117 1 C78.72 1.33 40.44 1.66 1 2 C0.67 1.34 0.34 0.68 0 0 Z " transform="translate(230,312)"/><path d="M0 0 C1.352 3.055 0.902 4.306 -0.145 7.566 C-0.689 8.903 -1.245 10.235 -1.812 11.562 C-2.086 12.235 -2.36 12.907 -2.643 13.6 C-3.893 16.619 -5.182 19.273 -7 22 C-7.33 23.031 -7.66 24.062 -8 25.125 C-9 28 -9 28 -11 29 C-11 26.36 -11 23.72 -11 21 C-10.01 21 -9.02 21 -8 21 C-8.33 20.01 -8.66 19.02 -9 18 C-8.34 18 -7.68 18 -7 18 C-7 16.68 -7 15.36 -7 14 C-6.34 14 -5.68 14 -5 14 C-4.917 13.175 -4.835 12.35 -4.75 11.5 C-3.836 7.232 -2.078 3.808 0 0 Z " transform="translate(226,317)"/><path d="M0 0 C0.892 -0.003 1.784 -0.007 2.703 -0.01 C4.581 -0.015 6.458 -0.017 8.336 -0.017 C11.208 -0.02 14.081 -0.038 16.953 -0.057 C18.781 -0.06 20.609 -0.062 22.438 -0.062 C22.866 -0.066 22.866 -0.066 25.036 -0.084 C25.837 -0.081 26.638 -0.078 27.463 -0.075 C28.165 -0.076 28.866 -0.078 29.589 -0.079 C31.586 0.168 31.586 0.168 35.586 2.168 C18.756 2.168 1.926 2.168 -15.414 2.168 C-15.414 1.838 -15.414 1.508 -15.414 1.168 C-10.238 0.117 -5.256 0.007 0 0 Z " transform="translate(925.4140625,350.83203125)"/><path d="M0 0 C0 0.33 0 0.66 0 1 C-23.43 1 -46.86 1 -71 1 C-71 0.67 -71 0.34 -71 0 C-62.629 -0.154 -54.257 -0.302 -45.886 -0.443 C-41.999 -0.508 -38.111 -0.576 -34.224 -0.648 C-30.47 -0.718 -26.715 -0.782 -22.961 -0.843 C-21.531 -0.867 -20.102 -0.893 -18.672 -0.921 C-16.664 -0.959 -14.656 -0.991 -12.648 -1.022 C-12.077 -1.032 -12.077 -1.032 -9.189 -1.082 C-6.033 -1.001 -3.096 -0.597 0 0 Z " transform="translate(643,353)"/><path d="M0 0 C0.469 0.003 0.469 0.003 2.841 0.017 C3.841 0.015 4.84 0.013 5.87 0.011 C9.305 0.008 12.74 0.019 16.176 0.029 C18.713 0.03 21.25 0.03 23.786 0.03 C30.184 0.03 36.582 0.042 42.98 0.057 C48.318 0.07 53.656 0.078 58.993 0.084 C83.4 0.11 107.806 0.171 132.212 0.24 C137.909 0.256 143.605 0.271 149.302 0.287 C189.062 0.395 228.823 0.516 268.583 0.651 C276.317 0.677 284.051 0.703 291.785 0.727 C292.554 0.73 293.322 0.732 294.114 0.734 C294.497 0.736 294.497 0.736 296.439 0.742 C311.361 0.789 326.283 0.839 341.204 0.897 C348.159 0.923 355.113 0.948 362.068 0.969 C368.509 0.988 374.949 1.013 381.39 1.04 C383.745 1.05 386.1 1.057 388.456 1.063 C391.648 1.072 394.84 1.086 398.032 1.102 C398.97 1.103 399.907 1.104 400.873 1.105 C401.72 1.11 402.568 1.116 403.441 1.121 C404.175 1.124 404.909 1.127 405.666 1.129 C407.465 1.26 407.465 1.26 409.465 2.26 C408.79 6.477 407.429 10.14 405.777 14.072 C405.299 15.234 404.821 16.395 404.328 17.592 C403.72 18.821 403.098 20.043 402.465 21.26 C402.151 21.944 401.837 22.628 401.514 23.332 C400.06 25.872 398.788 27.457 396.465 29.26 C391.333 30.487 386.233 30.341 380.992 30.276 C379.387 30.285 377.782 30.298 376.177 30.314 C371.776 30.347 367.376 30.331 362.975 30.306 C358.248 30.288 353.522 30.315 348.796 30.337 C339.58 30.371 330.364 30.363 321.148 30.341 C310.446 30.316 299.744 30.335 289.042 30.355 C262.591 30.402 236.14 30.348 209.688 30.269 C206.502 30.26 203.315 30.251 200.129 30.243 C158.371 30.129 116.614 29.949 74.857 29.629 C72.604 29.612 70.351 29.596 68.098 29.581 C47.54 29.44 27.01 28.967 6.465 28.26 C6.465 27.93 6.465 27.6 6.465 27.26 C7.785 27.095 7.785 27.095 14.465 26.26 C14.465 24.94 14.465 23.62 14.465 22.26 C14.465 20.94 14.465 19.62 14.465 18.26 C12.815 17.93 11.165 17.6 9.465 17.26 C10.455 16.6 11.445 15.94 12.465 15.26 C11.805 14.93 11.145 14.6 10.465 14.26 C10.795 13.27 11.125 12.28 11.465 11.26 C9.485 10.6 7.505 9.94 5.465 9.26 C6.455 8.93 7.445 8.6 8.465 8.26 C8.795 7.27 9.125 6.28 9.465 5.26 C13.095 4.93 16.725 4.6 20.465 4.26 C12.215 4.26 3.965 4.26 -4.535 4.26 C-5.525 7.23 -6.515 10.2 -7.535 13.26 C-8.051 14.064 -8.566 14.869 -9.098 15.697 C-11.298 19.62 -11.808 23.857 -12.535 28.26 C-14.845 28.59 -17.155 28.92 -19.535 29.26 C-19.018 26.934 -18.37 24.851 -17.473 22.635 C-16.535 20.26 -16.535 20.26 -16.535 18.26 C-15.875 18.26 -15.215 18.26 -14.535 18.26 C-14.535 16.94 -14.535 15.62 -14.535 14.26 C-13.875 14.26 -13.215 14.26 -12.535 14.26 C-12.205 11.95 -11.875 9.64 -11.535 7.26 C-10.545 7.26 -9.555 7.26 -8.535 7.26 C-8.576 6.476 -8.618 5.692 -8.66 4.885 C-8.394 -0.713 -4.667 0.023 0 0 Z M15.465 11.26 C15.465 11.92 15.465 12.58 15.465 13.26 C16.125 13.26 16.785 13.26 17.465 13.26 C17.465 12.6 17.465 11.94 17.465 11.26 C16.805 11.26 16.145 11.26 15.465 11.26 Z " transform="translate(545.5352325439453,547.7400426864624)"/></g>
</svg>